<?xml version="1.0" encoding="utf-8"?>
<!-- Generator: Adobe Illustrator 25.4.1, SVG Export Plug-In . SVG Version: 6.00 Build 0)  -->
<svg version="1.1" id="Capa_1" xmlns="http://www.w3.org/2000/svg" xmlns:xlink="http://www.w3.org/1999/xlink" x="0px" y="0px"
	 viewBox="0 0 2500 840" style="enable-background:new 0 0 2500 840;" xml:space="preserve">
<style type="text/css">
	.st0{fill:#FFFFFF;}
</style>
<path class="st0" d="M231.8,2.2c-16.6,6.4-44,40.6-60.1,74.3c-22,46.9-31.8,88.5-31.8,136.4c0,34.7,2,45.9,13.2,70.9
	c7.3,15.6,19.1,35.2,26.4,43c16.6,17.6,47.4,31.8,68.4,32.3c13.2,0,15.6,2,15.6,12.2c0,6.8-4.4,23-9.3,36.7
	c-21.5,56.2-65,88-122.2,88c-40.6,0-69.9-13.2-80.6-36.2c-13.2-27.9-10.3-45,12.2-72.3c15.2-17.6,21-29.3,23-45.5
	c2-19.5,1-22.5-9.3-25.9c-27.9-10.3-62.6,15.6-73.3,53.8c-2.9,11.7-4.4,33.7-2.9,49.4c7.3,80.1,67.4,121.2,167.1,114.4
	c54.7-3.9,83.1-14.7,112.9-45c31.3-30.8,44.5-65.5,50.8-129c5.4-53.8,6.4-259.5,2-314.7c-3.4-37.1-3.4-37.6-18.6-39.6
	C280.7-0.2,241.1-1.7,231.8,2.2z M262.1,71.6c2.9,3.9,3.9,51.8,2.4,119.7c-2,105.6-2.9,113.9-11.2,116.3
	c-16.1,5.4-35.7-8.3-48.4-34.2c-11.2-22-12.2-30.3-12.2-83.1c0-63.5,5.4-86.5,25.4-110C230.9,64.8,253.3,60.4,262.1,71.6z M853,15.4
	c-1.5,3.9-2.9,18.6-2.9,32.3c0,14.2-1.5,40.1-3.4,58.2l-2.9,33.2h-22.5c-22,0-57.7,6.8-62.6,11.2c-1,1.5,0,6.8,2.9,12.2
	c4.9,8.8,15.2,12.7,67.9,23.5l10.8,2l-1,116.3c-1.5,101.7-0.5,119.7,7.8,146.1c15.6,51.8,51.3,83.1,87.5,76.2
	c18.1-3.4,42-29.3,58.2-62.6c7.3-16.1,13.7-24.9,13.7-19.5c0,16.1,23,59.6,35.2,67.9c6.4,4.4,23.5,9.8,37.6,12.7
	c42,7.8,66.5-9.8,91.4-66.5l7.8-19.1l4.4,14.2c5.4,19.5,31.8,45.5,49.4,48.9c19.1,3.9,44.5-7.3,57.7-25.4l11.2-15.2l10.3,20.5
	c13.7,26.4,28.3,36.7,63.5,43c25.9,4.4,30.3,4.4,41.5-4.4c6.8-4.9,18.6-20,25.9-33.2l13.7-23.9v58.2l-36.2,35.7
	c-40.1,39.1-69.4,90.4-83.6,145.6c-23.9,94.3,6.4,135.9,99.7,136.4c40.1,0.5,40.6,0.5,54.2-15.6c23-27.4,26.4-47.9,29.3-172
	l2.4-114.8h15.6c8.8,0,18.6-2.9,22-6.4c5.4-5.4,4.4-8.3-5.4-16.1c-6.4-4.9-17.1-9.3-23.9-9.3h-12.2l2.4-79.7
	c2-61.1,4.4-83.1,10.8-95.3l8.3-16.1l-16.1-6.4l-16.1-6.8v-44c0-42-1-45-13.7-58.6c-7.3-7.8-23-16.6-34.2-20
	c-11.2-2.9-30.8-10.3-43.5-16.1c-26.9-12.2-41.1-9.8-64.5,10.8c-33.2,29.3-49.8,87-56.2,193c-3.9,67.9-11.2,91.9-29.8,97.7
	c-13.7,4.4-23-4.4-29.3-26.4c-6.4-23.9-6.4-79.2,1-106.5c5.4-21.5,4.9-23-6.8-32.7c-11.2-9.3-12.7-14.7-14.7-50.8
	c-2.9-51.3-10.3-61.6-55.7-80.1c-90.9-37.1-136.4,3.9-153.5,139.8c-2.4,21-6.8,41.1-9.3,44c-2.4,2.9-8.3,20.5-12.2,38.6
	c-9.8,41.1-23.5,69.4-40.1,79.7c-11.7,7.8-12.7,7.8-22-1.5c-14.7-14.7-19.1-60.6-16.1-162.7c3.4-128,1.5-120.7,34.2-125.1
	c15.2-1.5,41.5-3.4,58.6-3.4c33.7-0.5,38.6-4.9,21.5-20.5c-7.8-6.8-21-9.8-57.7-11.7l-47.4-2.9l1-34.2c0.5-19.1,2.4-45,3.9-57.7
	c2.9-23,2.4-23.5-13.2-29.8C880.4,9.1,855.9,6.6,853,15.4L853,15.4z M1439.9,219.2c12.7,11.2,13.7,14.2,13.2,47.9
	c-1,66-13.7,140.3-29.8,172.5c-11.2,22.5-31.3,41.5-44,41.5c-6.4,0-14.7-5.4-19.5-13.2c-13.2-19.5-12.7-148.6,0.5-187.2
	c12.7-38.1,26.4-58.6,44-66.5C1424.3,205.5,1424.3,205.5,1439.9,219.2z M1157,229.5c13.2,17.1,18.1,52.8,8.8,67
	c-3.9,6.4-9.3,34.7-12.2,63.5c-7.3,65.5-17.1,99.7-34.7,117.3c-20.5,20-37.6,18.6-47.4-4.9c-19.1-44.5-11.2-173,13.7-221.4
	C1102.7,216.3,1138.4,205.5,1157,229.5L1157,229.5z M1451.2,722.1c-8.8,56.7-29.8,86-56.7,79.7c-25.4-6.4-33.2-52.3-19.1-108
	c10.8-40.6,36.7-93.8,59.1-119.7l19.1-21.5l1.5,67.9C1455.6,658.1,1454.1,704,1451.2,722.1z"/>
<path class="st0" d="M1820.2,175.2c-24.9,25.9-39.6,65-46.9,127.6c-6.8,58.6-26.4,135.9-40.1,160.8c-8.3,15.2-13.7,20-23,20
	c-19.5,0-25.9-26.9-23-100.2c2-44.5,5.4-70.9,13.7-97.3l11.2-36.2l-10.8-8.8c-6.8-5.4-23.5-9.8-44-11.7c-18.1-1.5-36.2-3.4-40.1-3.9
	c-4.9-1-7.3-7.3-7.3-20.5c-0.5-27.9-5.4-33.2-25.4-30.3c-29.8,4.9-29.8,5.9-27.4,88c2,47.9,0.5,87.5-3.4,110.9
	c-8.8,51.8-8.3,55.7,1.5,57.7c13.2,2.9,25.9-32.3,36.2-101.7l9.3-61.1h28.8l-2,63.5c-2.9,124.6,23,188.2,76.7,188.2
	c22.5,0,42-15.2,56.2-44l12.2-23.9l7.8,21c4.4,11.2,14.2,26.4,21.5,33.2c16.1,15.2,61.6,26.4,80.1,19.1
	c16.1-5.9,37.1-31.8,50.3-60.6l10.3-23.9l9.3,20.5c23.5,52.3,77.2,56.2,109,8.3l13.2-20l2.9,25.4c4.4,32.3,9.8,38.6,36.7,43
	c42.5,6.4,42.5,5.9,52.3-67.4c8.3-66,21-121.2,28.3-121.2c2,0,4.4,32.7,5.4,72.8c1.5,63,2.9,74.3,10.8,83.1
	c19.1,21,66.5,17.6,66.5-4.9c0-17.1,19.5-88,35.7-129l15.6-39.1l2.4,68.4c2,60.6,3.9,71.4,14.7,92.4c6.8,13.7,18.1,28.8,25.4,34.2
	c18.1,13.2,52.8,13.2,70.4,0c37.6-27.9,76.7-148.6,48.4-148.6c-8.8,0-14.7,11.7-19.5,36.7c-11.2,62.6-48.9,98.2-66,62.1
	c-10.3-21-11.7-105.1-2.4-145.1c14.7-63.5,15.2-58.6-4.4-73.3c-12.2-9.3-25.9-14.7-41.5-16.1l-23-2l-12.7,28.3
	c-7.3,16.1-23.5,58.6-36.7,94.8l-23.5,66l-1.5-74.3l-1.5-74.8l-14.2-7.3c-39.1-20-59.6-2-82.6,73.8c-8.8,29.3-16.6,55.2-17.6,58.2
	c-1,2.4-2-37.1-2-88.9c-0.5-58.2-2.4-94.8-5.4-96.8c-2.9-2-17.1-4.4-31.3-5.9l-26.4-2.9l-2,92.4c-2,77.7-3.9,97.3-12.7,124.6
	c-19.1,57.2-43.5,74.8-57.7,41.1c-8.3-20-9.3-93.8-1.5-122.2c4.9-17.6,4.4-20-6.8-29.3c-10.3-8.3-12.2-15.6-15.2-48.4
	c-3.9-43.5-11.2-62.1-28.3-69.4c-51.3-23.9-60.1-26.4-85.5-26.4C1841.7,153.7,1839.2,154.7,1820.2,175.2L1820.2,175.2z
	 M1915.5,222.1c16.1,8.8,26.9,64,14.7,76.2c-2.4,2.4-7.3,27.9-9.8,55.7c-6.8,66.5-17.6,104.1-34.7,122.7
	c-18.1,19.1-38.1,18.1-47.9-2.4c-16.6-35.2-15.6-134.4,2-195.5C1854.4,229.5,1885.2,206,1915.5,222.1z M393.6,191.8
	c-3.9,6.8-14.2,238.5-11.7,265.9c3.4,32.3,14.2,43,42.5,43c12.2,0,24.9-2,27.9-3.9c3.4-2,9.3-22,13.7-45
	c9.3-45.5,23.9-93.3,34.7-112.4c6.4-11.2,6.8-6.8,7.3,46.4c0,65,6.8,87.5,29.3,99.2c16.1,8.3,46.9,4.4,64.5-8.8
	c14.7-10.8,14.7-10.8,21.5-1c15.6,22.5,83.1,35.7,130.5,25.4c35.7-7.3,57.2-24.4,57.2-45.9c0-21-7.3-30.3-58.2-71.4
	s-59.1-51.8-59.1-75.8c0-35.2,43.5-56.2,68.9-33.7c11.7,10.8,22,8.3,36.2-8.3C809,253.4,811,246.1,810,230
	c-1.5-16.6-3.9-21-16.1-26.9c-27.4-13.2-116.8,10.8-148.6,40.1c-25.4,23.5-31.3,59.6-15.2,90.9c7.3,15.2,8.3,19.5,2.9,21.5
	c-3.4,1.5-7.8,12.2-9.8,23.5c-7.8,49.4-33.7,83.1-51.3,66c-6.4-6.8-7.8-21.5-8.8-88c-0.5-61.1-2.4-83.6-8.3-94.8
	c-8.3-16.1-27.4-23.5-42-15.6c-12.2,6.4-31.8,40.1-49.4,84.5l-13.7,35.2l-0.5-79.2c0-76.7-0.5-79.7-10.8-86.5
	C423.4,191.3,397,186.5,393.6,191.8z M720.6,424c11.7,10.3,22,22.5,23.5,27.9c7.3,27.4-32.7,35.2-64,12.2
	c-10.3-7.3-23.9-17.1-31.8-21.5c-8.3-4.9-12.2-10.3-10.3-15.2c1.5-3.9,5.4-19.5,8.3-34.7l5.4-27.9l24.4,20.5
	C689.3,396.1,709.3,413.7,720.6,424z"/>
</svg>
